<?xml version="1.0" encoding="UTF-8" standalone="no"?>
<svg width="370px" height="172px" viewBox="0 0 370 172" version="1.1" xmlns="http://www.w3.org/2000/svg" xmlns:xlink="http://www.w3.org/1999/xlink" xmlns:sketch="http://www.bohemiancoding.com/sketch/ns">
    <!-- Generator: Sketch 3.2.1 (9977) - http://www.bohemiancoding.com/sketch -->
    <title>Fill 1</title>
    <desc>Created with Sketch.</desc>
    <defs>
        <path id="path-1" d="M0.06,0.04 L369.883,0.04 L369.883,172 L0.06,172 L0.06,0.04 Z"></path>
    </defs>
    <g id="Page-1" stroke="none" stroke-width="1" fill="none" fill-rule="evenodd" sketch:type="MSPage">
        <g id="Artboard-13" sketch:type="MSArtboardGroup" transform="translate(-72.000000, -1438.000000)">
            <path d="M435.625,1458.012 C435.625,1446.969 426.657,1438 415.618,1438 C404.583,1438 395.605,1446.969 395.605,1458.012 C395.605,1469.04 404.583,1478.019 415.618,1478.019 C426.657,1478.019 435.625,1469.04 435.625,1458.012 L435.625,1458.012 Z M423.402,1458.012 C423.402,1462.289 419.905,1465.782 415.618,1465.782 C411.34,1465.782 407.848,1462.289 407.848,1458.012 C407.848,1453.722 411.34,1450.229 415.618,1450.229 C419.905,1450.229 423.402,1453.722 423.402,1458.012 L423.402,1458.012 Z M370.407,1458.572 L370.407,1473.041 C353.037,1473.812 336.786,1481.087 324.543,1493.617 C311.932,1506.508 304.988,1523.505 304.988,1541.486 C304.988,1542.363 305.021,1543.231 305.054,1544.099 C298.169,1527.227 280.681,1515.511 259.659,1515.511 C244.705,1515.511 234.029,1519.157 227.198,1526.611 C229.201,1513.079 237.142,1499.102 254.242,1499.102 C258.137,1499.102 261.25,1499.721 263.73,1500.974 C267.193,1502.924 269.285,1505.856 270.311,1510.19 L270.586,1511.322 L306.643,1511.322 L306.299,1509.565 C301.879,1486.456 282.412,1472.66 254.242,1472.66 C206.311,1472.66 189.241,1508.574 189.241,1542.183 C189.241,1544.942 189.339,1547.626 189.525,1550.239 C186.034,1543.789 180.14,1539.054 171.944,1536.239 C183.421,1532.137 188.691,1520.523 188.691,1510.415 C188.691,1482.546 158.714,1472.66 133.064,1472.66 C98.785,1472.66 76.985,1490.282 76.19,1518.645 L76.136,1520.152 L112.266,1520.152 L112.241,1518.657 C112.163,1513.858 113.543,1509.964 116.381,1507.094 C119.947,1503.463 125.786,1501.543 133.27,1501.543 C142.906,1501.543 152.624,1505.155 152.624,1513.227 C152.624,1523.893 138.8,1525.475 130.476,1525.485 C130.049,1525.506 129.626,1525.524 129.194,1525.524 C128.133,1525.524 127.082,1525.455 125.968,1525.397 C124.867,1525.324 123.704,1525.253 122.569,1525.253 C122.073,1525.253 121.587,1525.264 121.106,1525.295 L119.721,1525.376 L119.721,1550.513 L121.292,1550.409 C124.332,1550.229 127.49,1550.04 130.564,1550.04 C147.414,1550.04 154.927,1555.092 154.927,1566.42 C154.927,1577.261 143.519,1581.123 132.853,1581.123 C123.782,1581.123 117.167,1579.051 113.199,1574.974 C109.707,1571.396 108.096,1566.266 108.283,1559.315 L108.332,1557.806 L72.315,1557.806 L72.231,1559.197 C71.397,1572.686 75.099,1583.933 83.257,1592.594 C93.796,1603.823 111.495,1610 133.064,1610 C161.802,1610 190.762,1597.598 193.098,1570.04 C200.955,1595.486 220.5,1610 248.624,1610 C264.963,1610 279.814,1605.468 290.456,1597.239 C301.597,1588.622 307.674,1576.5 308.157,1562.081 C316.922,1589.818 342.896,1609.988 373.496,1609.988 C411.271,1609.988 442,1579.254 442,1541.486 C442,1524.174 435.129,1506.998 423.146,1494.359 L422.316,1493.468 L395.055,1510.973 L396.686,1512.267 C405.683,1519.418 410.839,1530.062 410.839,1541.486 C410.839,1562.07 394.093,1578.83 373.496,1578.83 C352.889,1578.83 336.148,1562.07 336.148,1541.486 C336.148,1521.888 351.068,1505.843 370.407,1504.259 L370.407,1518.657 L415.897,1488.611 L370.407,1458.572 L370.407,1458.572 Z M272.143,1562.474 C272.143,1573.104 262.213,1581.123 249.037,1581.123 C236.612,1581.123 227.591,1573.205 227.591,1562.286 C227.591,1550.696 236.72,1541.955 248.821,1541.955 C263.004,1541.955 272.143,1550.007 272.143,1562.474 L272.143,1562.474 Z" id="Fill-1" fill="#E94E1A" sketch:type="MSShapeGroup"></path>
            <g id="Untitled-1" sketch:type="MSLayerGroup" transform="translate(96.000000, 1459.000000)">
                <mask id="mask-2" sketch:name="Clip 2" fill="white">
                    <use xlink:href="#path-1"></use>
                </mask>
                <g id="Clip-2"></g>
            </g>
        </g>
    </g>
</svg>